<svg xmlns="http://www.w3.org/2000/svg" xml:space="preserve" width="8.4668mm" height="10.8678mm" version="1.1" style="shape-rendering:geometricPrecision; text-rendering:geometricPrecision; image-rendering:optimizeQuality; fill-rule:evenodd; clip-rule:evenodd"
viewBox="0 0 8.1 10.4">
  <path fill="white" d="M4.05 6.17c-1.17,0 -2.12,-0.95 -2.12,-2.12 0,-1.17 0.95,-2.11 2.12,-2.11 1.17,0 2.12,0.95 2.12,2.11 0,1.17 -0.95,2.12 -2.12,2.12zm2.86 -4.98c-0.79,-0.79 -1.83,-1.19 -2.86,-1.19 -1.04,0 -2.07,0.4 -2.86,1.19 -1.45,1.45 -1.59,3.74 -0.33,5.36l2.9 3.71c0.15,0.19 0.44,0.19 0.59,0l2.9 -3.71c0.57,-0.74 0.86,-1.62 0.86,-2.49 0,-1.04 -0.4,-2.08 -1.19,-2.87z"/>
</svg>
