<svg xmlns="http://www.w3.org/2000/svg" xml:space="preserve" width="8.4668mm" height="8.5588mm" version="1.1" style="shape-rendering:geometricPrecision; text-rendering:geometricPrecision; image-rendering:optimizeQuality; fill-rule:evenodd; clip-rule:evenodd"
viewBox="0 0 8.39 8.48">
   <path fill="white" d="M8.39 0.28l-1.58 8.02c-0.04,0.19 -0.28,0.25 -0.4,0.1l-2.09 -2.48 0.02 -0.03 3.43 -4.96c0.04,-0.06 0.05,-0.14 0.01,-0.2 -0.03,-0.06 -0.1,-0.11 -0.17,-0.11 -0.04,0 -0.08,0.01 -0.12,0.04l-5.16 3.97 -2.17 -0.83c-0.19,-0.07 -0.2,-0.35 -0.01,-0.43l7.93 -3.35c0.17,-0.07 0.35,0.08 0.32,0.26z"/>
   <path fill="white" d="M7.56 0.76l-5.1 3.92 0.62 2.1c0.05,0.18 0.29,0.22 0.4,0.07l0.74 -1.04 3.43 -4.96c0.04,-0.06 -0.03,-0.12 -0.09,-0.08z"/>
</svg>
